<svg xmlns:xlink="http://www.w3.org/1999/xlink"  width="34" height="35" viewBox="0 0 34 35" fill="none" xmlns="http://www.w3.org/2000/svg">
<path d="M21.0304 15.5356C24.9555 15.5356 28.8805 15.5356 32.8056 15.5356C33.8761 15.5356 34.0562 15.7684 33.9869 17.0123C33.7756 20.6679 31.2848 23.4969 28.153 23.521C23.4208 23.5571 18.6885 23.513 13.9528 23.529C10.4226 23.5411 8.13273 20.2306 8.00802 17.0645C7.95605 15.7563 8.13273 15.5397 9.25171 15.5397C13.1768 15.5397 17.1019 15.5397 21.0269 15.5397L21.0304 15.5356Z" fill="#4DDFD2"/>
<path d="M26.7995 34.535C26.4589 34.535 26.1274 34.4647 25.8128 34.3266C25.2183 34.0647 24.7862 33.6284 24.5274 33.0296C24.2844 32.4666 24.265 31.8726 24.4674 31.2138L24.5201 31.0435L20.7146 28.4393L16.9043 31.0435L16.9577 31.2144C17.208 32.0205 17.1237 32.7356 16.7007 33.4011C16.4025 33.8696 15.9825 34.2035 15.4528 34.3932C15.1886 34.4878 14.9128 34.5356 14.6328 34.5356C13.7885 34.5356 13.011 34.1108 12.5522 33.3993C11.9364 32.4435 12.0534 31.1993 12.8358 30.3744C13.2964 29.8884 13.8473 29.6369 14.5189 29.6053C14.5595 29.6035 14.6001 29.6023 14.6401 29.6023C15.2195 29.6023 15.7498 29.7993 16.2613 30.2047L16.4013 30.3156L19.8765 27.9405L19.634 27.735C19.6086 27.7132 19.5849 27.6926 19.5631 27.6726C19.5116 27.6266 19.4631 27.5835 19.4043 27.5429L18.914 27.2072C17.328 26.1205 15.6879 24.9963 14.0698 23.8987C13.9067 23.7878 13.6873 23.715 13.4843 23.7029C12.0613 23.6205 10.6752 23.032 9.58186 22.0466C8.4867 21.0599 7.75761 19.7387 7.52912 18.3278C7.46367 17.9241 7.42791 17.4975 7.42185 17.0587C7.41337 16.3853 7.41397 15.6993 7.41518 15.0356C7.41518 14.5411 7.4164 14.0296 7.41337 13.5259C7.41215 13.3023 7.37821 13.0835 7.31579 12.8932C6.86306 11.5138 6.39579 10.1132 5.94427 8.75928L5.68487 7.98171C5.5473 7.56837 5.45154 7.5011 5.00548 7.50049C4.37578 7.50049 3.74608 7.50049 3.11638 7.50049H0.932731C0.905459 7.50049 0.878186 7.50049 0.850913 7.49989C0.82061 7.49989 0.790307 7.49867 0.760609 7.49867C0.723034 7.49867 0.685458 7.49928 0.647882 7.50171C0.622427 7.50352 0.596972 7.50413 0.571518 7.50413C0.316971 7.50413 0.13394 7.41504 0 7.22413V4.19443C0.128485 3.98231 0.315153 3.89504 0.630306 3.89504H0.640609C1.89577 3.90292 2.86304 3.90655 3.77699 3.90655C4.69093 3.90655 5.46184 3.90292 6.23275 3.89625H6.26003C7.46852 3.89625 8.43337 4.61807 8.77701 5.78049C9.23883 7.34171 9.73035 8.9211 10.2061 10.449C10.3952 11.0569 10.5843 11.6641 10.7722 12.272C10.7934 12.3405 10.82 12.4035 10.8431 12.4599C10.8522 12.4823 10.8619 12.5041 10.8704 12.5259L10.931 12.6793H20.9413C20.9413 12.6793 20.9413 10.3714 20.9413 9.54655C20.9419 6.81564 20.9425 3.9914 20.9352 1.21383C20.934 0.866554 21.0189 0.670796 21.234 0.535645H22.3625C22.4862 0.554432 22.6104 0.572614 22.734 0.59019C23.0062 0.629584 23.288 0.67019 23.5613 0.719887C26.8765 1.32231 29.5826 3.01868 31.605 5.7611C32.7777 7.3514 33.5298 9.16837 33.8395 11.1617C33.9541 11.8975 33.9802 12.6405 33.9905 13.2053C34.0032 13.912 34.0002 14.6314 33.9971 15.3278C33.9947 15.9223 33.9923 16.5369 33.9995 17.1417C34.0365 20.2787 31.8201 22.9944 28.7292 23.5993C28.5886 23.6266 28.4438 23.6411 28.291 23.6569C28.165 23.6696 28.0347 23.6823 27.9044 23.7035C27.7329 23.7314 27.5522 23.7672 27.4019 23.869C25.8444 24.9266 24.2644 26.0078 22.7371 27.0532L21.9565 27.5878C21.9231 27.6102 21.8953 27.6338 21.8601 27.6635C21.8419 27.6787 21.8201 27.6975 21.7922 27.7199L21.5437 27.9229L21.8074 28.1066C22.7189 28.7411 23.605 29.3453 24.5431 29.9847L25.0292 30.3163L25.1698 30.2011C25.6565 29.8011 26.1977 29.5981 26.7783 29.5981C26.9371 29.5981 27.1013 29.6132 27.2668 29.6429C27.8274 29.7441 28.305 30.0253 28.688 30.4799C29.4195 31.3484 29.4619 32.5969 28.7916 33.5156C28.3262 34.1538 27.5813 34.535 26.7995 34.535ZM14.6358 30.4866C13.7534 30.4866 13.057 31.172 13.0498 32.0472C13.0461 32.4781 13.2092 32.8817 13.5079 33.1847C13.8031 33.4841 14.1976 33.6502 14.6189 33.6526H14.6285C15.0467 33.6526 15.4443 33.4853 15.7473 33.1823C16.0498 32.8793 16.2164 32.4817 16.2158 32.0635C16.2146 31.2035 15.5146 30.4963 14.6552 30.4859L14.6358 30.4866ZM26.7989 30.4866C26.3704 30.4866 25.9722 30.649 25.6777 30.9441C25.3831 31.2393 25.2213 31.6381 25.2219 32.0672C25.2225 32.9417 25.9286 33.6526 26.7965 33.6532H26.8098C27.6607 33.6459 28.3674 32.9429 28.385 32.0859C28.3935 31.6696 28.2347 31.2732 27.9377 30.969C27.6359 30.6593 27.2335 30.4884 26.8056 30.4866H26.7989ZM20.7158 27.3659L25.4844 24.1029L25.2771 23.7363H15.4086L20.7158 27.3659ZM8.33943 16.5266C8.33701 16.5593 8.33337 16.5902 8.33034 16.6199C8.32307 16.6884 8.31579 16.7587 8.31761 16.8326C8.32004 16.9369 8.32064 17.0411 8.32125 17.1453C8.32246 17.4138 8.32367 17.6914 8.36125 17.9672C8.73519 20.7229 11.0897 22.809 13.8376 22.8199C15.7758 22.8272 17.8249 22.8314 20.1025 22.8314C22.7286 22.8314 25.3668 22.8266 27.6019 22.8217C29.0632 22.8187 30.351 22.2793 31.4292 21.2199C32.682 19.989 33.2298 18.4544 33.1044 16.5296L33.0898 16.3029H8.35701L8.33943 16.5266ZM8.34125 15.3805H33.105V13.6053H8.34125V15.3805ZM3.83941 6.60292C4.43153 6.60292 5.02305 6.60292 5.61518 6.60292C6.09154 6.60292 6.1776 6.66352 6.32427 7.10171C6.51882 7.68413 6.71215 8.26655 6.90609 8.84898L7.39579 10.3223C7.61094 10.9696 7.8261 11.6169 8.04246 12.2635C8.16367 12.6272 8.26004 12.6963 8.64731 12.6987C8.77095 12.6993 8.89398 12.6999 9.02065 12.6999H9.64004H9.96247L9.87277 12.3902L9.8352 12.2593C9.81217 12.1793 9.79398 12.115 9.77398 12.0508C9.16186 10.0617 8.54974 8.07201 7.93701 6.08292C7.657 5.17383 7.12973 4.78534 6.17457 4.78413C5.53639 4.78352 4.8976 4.78292 4.25941 4.78292C3.34486 4.78292 2.43092 4.78352 1.51637 4.78413H1.43152C1.35576 4.78413 1.28243 4.79019 1.21152 4.79625C1.18061 4.79868 1.14849 4.8011 1.11637 4.80352L0.889701 4.81807V6.60413H3.83941V6.60292ZM30.731 8.25443C28.391 9.60595 26.1813 10.8823 23.9468 12.2284L23.1995 12.6787H33.0911L33.0783 12.4241C33.0014 10.8678 32.6068 9.38595 31.8723 7.89383L31.7577 7.6611L30.731 8.25443ZM23.0231 11.1896L23.2207 11.372L23.3516 11.4938L31.2741 6.91746L31.1589 6.70898C30.5377 5.58595 28.8444 3.9011 27.8032 3.3708L27.5983 3.26655L23.0231 11.1896ZM22.348 1.46898C22.2395 1.46898 22.1419 1.47504 22.0583 1.48716L21.8504 1.51686V10.6496L22.2559 10.7496L26.8371 2.81443L26.6395 2.69019C25.5953 2.03261 23.4074 1.46898 22.348 1.46898Z" fill="#434A54"/>
</svg>
