<svg xmlns="http://www.w3.org/2000/svg" xmlns:xlink="http://www.w3.org/1999/xlink" width="34" height="26" viewBox="0 0 34 26">
    <defs>
        <path id="a" d="M0 .31h38.596v28.368H0z"/>
    </defs>
    <g fill="none" fill-rule="evenodd" transform="translate(-2 -1.988)">
        <mask id="b" fill="#fff">
            <use xlink:href="#a"/>
        </mask>
        <path fill="#DC3226" d="M27.466 14.486h-.009v5.364c-.13.009-.262.014-.391.014-1.538 0-2.397-.79-2.397-2.726v-2.964c0-1.521-.7-2.47-2.078-2.47-1.139 0-2.178.895-2.178 2.978v4.985h-2.797v-5.513c0-1.206-.426-2.054-1.319-2.341l1.485-2.543.003.001c1.037.27 1.677.925 2.189 1.703.7-1.067 1.958-1.818 3.676-1.818 2.697 0 3.816 2.015 3.816 4.564v.766zm-12.16-2.688c-1.07.105-1.985.96-1.985 2.975v4.894h-2.768V9.277c.124-.008.25-.012.376-.012 1.186 0 1.957.47 2.253 1.544.495-.958 1.314-1.673 3.038-1.673.274 0 .469.008.612.025 0 0 .081.004.206.015l-1.517 2.598a1.68 1.68 0 0 0-.215.024zM32.818 2H8.098c-1.585 0-2.87 1.27-2.87 2.838v16.737L2 27h27.948c1.586 0 2.87-1.27 2.87-2.838V7.347L36 2h-3.182z" mask="url(#b)"/>
    </g>
</svg>
