<svg id="Layer_1" data-name="Layer 1" xmlns="http://www.w3.org/2000/svg" width="40" height="40" viewBox="0 0 40 40"><defs><style>.cls-1{fill:none;}.cls-1,.cls-2,.cls-3{stroke:#434a54;stroke-linecap:round;stroke-linejoin:round;}.cls-2{fill:#d2d2d2;}.cls-3{fill:#fff;}</style></defs><title>bed</title><path class="cls-1" d="M29.33 29.5H38v-6H3.06v6h26.27zM4.85 29.5h2.01v1.93H4.85zM34.04 29.5h2.01v1.93h-2.01zM7 10.34h26.37A2.68 2.68 0 0 1 36 13v6.84H4.33V13A2.68 2.68 0 0 1 7 10.34z"/><path class="cls-2" d="M5.22 19.86h30.63A2.16 2.16 0 0 1 38 22v1.5H3.06V22a2.16 2.16 0 0 1 2.16-2.14z"/><path class="cls-3" d="M9.62 16.37h6a2.74 2.74 0 0 1 2.74 2.73v.76H6.88v-.76a2.74 2.74 0 0 1 2.74-2.73zM24.75 16.37h6a2.73 2.73 0 0 1 2.73 2.73v.76H22v-.76a2.74 2.74 0 0 1 2.75-2.73z"/></svg>