<svg xmlns="http://www.w3.org/2000/svg" viewBox="0 0 300 296">
    <defs>
        <linearGradient id="prefix__a" x1="50%" x2="50%" y1="16.659%" y2="88.078%">
            <stop offset="0%" stop-color="#F44438"/>
            <stop offset="99.955%" stop-color="#BE291F"/>
        </linearGradient>
        <linearGradient id="prefix__b" x1="50%" x2="51.067%" y1="0%" y2="62.36%">
            <stop offset="0%" stop-color="#FA5044"/>
            <stop offset="100%" stop-color="#CA2F24"/>
        </linearGradient>
    </defs>
    <g fill="none" fill-rule="evenodd">
        <g transform="translate(2.919)">
            <path fill="#E2EAF0" fill-rule="nonzero" d="M274.234 2.604v175.462H8.416V2.604h265.818m.741-.62H7.675v176.703h267.3V1.98v.004z"/>
            <path fill="#FFF" d="M12.921 6.269H272.301V178.529H12.921z"/>
            <path fill="#E2EAF0" fill-rule="nonzero" d="M274.397 178.594H12.809c-.101 0-.198-.032-.27-.09-.071-.059-.111-.138-.111-.22V6.3c0-.172.17-.31.38-.31h261.589c.21 0 .38.138.38.31v171.984c0 .082-.04.161-.11.22-.072.058-.17.09-.27.09zm-261.207-.62h260.826V6.61H13.19v171.364z"/>
            <path fill="#E2EAF0" fill-rule="nonzero" d="M275.84 197.325H4.325c-.201 0-.365-.139-.365-.31v-18.328c0-.171.164-.31.365-.31H275.84c.203 0 .37.138.37.31v18.328c0 .172-.167.31-.37.31zm-271.137-.62h270.772v-17.708H4.69l.013 17.708zM145.632 6.61v170.743h-2.894V6.61h2.894m.62-.62h-4.134v171.984h4.135V5.989z"/>
            <rect width="291.963" height="3.646" x=".548" y=".159" fill="#E2EAF0" fill-rule="nonzero" rx="1.823"/>
        </g>
        <g fill-rule="nonzero">
            <path fill="#F5F7FA" d="M28.062 131.062s10.032 33.842 4.803 94.957c0 0-10.131-9.488-18.303-3.594-8.171 5.894-14.233-.982-14.233-.982l5.179-90.644 22.554.263z" transform="matrix(-1 0 0 1 294.03 2.31)"/>
            <path fill="#E2EAF0" d="M32.865 226.33c-.079 0-.155-.03-.212-.084-.099-.092-10.044-9.234-17.908-3.57-8.303 5.99-14.595-.945-14.668-1.025-.054-.063-.081-.144-.076-.226l5.186-90.644c.01-.164.145-.292.31-.292l22.565.263c.136 0 .256.091.292.223.025.083 2.554 8.667 4.38 24.612 1.693 14.704 3.141 38.864.44 70.458-.009.12-.087.222-.2.263-.035.014-.072.022-.11.022zm-12.35-6.124c5.474 0 10.583 3.89 12.109 5.178 2.627-31.232 1.19-55.108-.49-69.706-1.667-14.492-3.89-22.879-4.291-24.31l-22.036-.255L.636 221.33c.777.817 6.324 6.204 13.744.843 1.78-1.298 3.931-1.988 6.135-1.967z" transform="matrix(-1 0 0 1 294.03 2.31)"/>
            <path fill="#E2EAF0" d="M20.044 217.596c-.172 0-.31-.139-.31-.31V150.2c0-.171.138-.31.31-.31.171 0 .31.139.31.31v67.086c0 .171-.139.31-.31.31z" transform="matrix(-1 0 0 1 294.03 2.31)"/>
            <path fill="#F5F7FA" d="M68.415.31c3.65 34.525-5.65 130.738-41.532 130.738l-21.386-.249L5.303.84 68.415.31z" transform="matrix(-1 0 0 1 294.03 2.31)"/>
            <path fill="#E2EAF0" d="M26.887 131.358l-21.39-.248c-.17-.002-.307-.14-.307-.31L4.997.84c0-.17.136-.309.306-.31L68.415 0c.159 0 .293.119.31.277 3.058 28.865-2.872 98.246-24.645 122.446-5.157 5.73-10.942 8.635-17.193 8.635zm-21.08-.865l21.08.244c6.069 0 11.678-2.835 16.73-8.43C65.2 98.319 71.111 29.56 68.133.624l-62.52.526.193 129.343z" transform="matrix(-1 0 0 1 294.03 2.31)"/>
            <path fill="#E2EAF0" d="M20.084 131.278c-.055 0-.109-.015-.157-.04-.072-.042-.125-.11-.146-.19-.021-.08-.01-.166.033-.238.175-.303 17.726-30.696 22.375-45.473.057-.156.226-.24.385-.19.158.05.25.216.206.376-4.667 14.843-22.262 45.295-22.43 45.62-.059.088-.16.139-.266.135zM14.456 131.11c-.146 0-.272-.102-.303-.245-.109-.507-2.733-12.46-2.733-16.905 0-.17.139-.31.31-.31.171 0 .31.14.31.31 0 4.38 2.694 16.65 2.723 16.788.034.166-.072.329-.237.365l-.07-.003z" transform="matrix(-1 0 0 1 294.03 2.31)"/>
        </g>
        <g fill-rule="nonzero" transform="translate(0 168.63)">
            <path fill="#1DBDC0" d="M29.984 79.632c-1.846-4.53-5.782-7.92-9.79-10.494-4.007-2.574-12.474-6.803-17.226-12.165-2.47-2.796-4.007-6.669-2.138-10.78 2.13-4.751 12.427-5.67 22.113 6.06C33.666 65.256 34.53 77.477 33.888 81.27c-1.148-1.14-2.59-2.66-3.904-1.64z"/>
            <path fill="#FFF" d="M28.233 68.615c-8.712-13.02-19.008-18.018-22.01-19.23l.246-.61c3.002 1.236 13.464 6.297 22.303 19.476l-.539.364z"/>
            <path fill="#1DBDC0" d="M31.52 79.347c.254-4.95.166-9.663-2.796-12.26-3.168-2.764-7.468-4.444-8.45-8.784-.666-2.922 1.338-6.542 1.655-8.34.317-1.797.61-3.96-.665-4.466-1.275-.507-1.711-1.766-1.933-3.588-.23-2.862.15-5.74 1.117-8.443.396-1.188 1.1-2.906.443-4.094-.657-1.188-1.362-1.458-1.362-3.747 0-2.288-.61-5.053.396-8.292.444-1.402 1.584-2.582.919-4.403-1.342-3.061-1.872-6.417-1.537-9.742.222-1.806 1.767-3.802 4.46-3.01 2.692.792 6.2 3.715 7.658 5.346 1.457 1.632 2.954 3.501 4.095 4.554 1.14 1.054 1.766 2.139 3.263 4.174 1.235 1.671 1.663 4.451 1.631 6.875-.047 3.041-.49 5.821.792 6.882 1.283 1.062 4.895 2.685 4.055 10.795-.119 6.661-2.289 33.177-4.53 40.321-2.447-.317-7.777-.356-9.21.222z"/>
            <path fill="#1DBDC0" d="M38.751 78.88c-3.168-21.44 4.65-40.179 15.278-59.67 2.027-3.706 5.013-8.941 6.953-8.276 1.94.665.507 6.961-.134 10.082-6.4 31.181-10.93 48.732-16.862 61.776-.824-1.441-4.324-3.96-5.235-3.913z"/>
            <path fill="#109093" d="M47.7 50.478c-4.308 7.08-5.219 22.454-2.486 29.138.15-.238.3-.483.443-.729 4.831-11.88 8.879-27.617 14.145-52.818-3.429 11.785-7.793 17.329-12.101 24.41z"/>
            <path fill="#1DBDC0" d="M49.237 78.887c.943-5.227 3.081-8.918 7.366-10.628 4.284-1.711 11.024-1.37 13.891-5.235 3.129-4.222-2.787-6.598-1.417-8.87 1.584-2.543 7.84-2.226 11.484-8.784 2.7-4.847 0-10.074-4.752-11.635-6.534-2.146-11.88.531-14.177 3.644-1.402 1.9-.65 3.445-1.695 4.752-1.584 1.996-5.797 2.376-8.34 2.296-2.542-.079-4.443.555-5.148 2.1-.705 1.544.555 2.597 2.653 3.595 2.1.998 3.826 2.376 3.295 4.546-.602 2.447-2.994 3.168-5.393 5.489-2.646 2.55-4.752 4.99-5.14 9.741-.388 4.752 1.995 7.833 3.342 9.678 1.845-.966 3.002-1.172 4.031-.689z"/>
            <ellipse cx="38.115" cy="103.95" fill="#F5F7FA" rx="17.325" ry="2.97"/>
            <path fill="#E2EAF0" d="M23.64 77.383L27.687 103.265 47.439 103.265 51.486 77.383z"/>
            <path fill="#BFCEDC" d="M42.3 79.616l-17.94-.491.056 2.962c9.187 1.434 20.362 3.857 24.964 9.029l1.98-12.672c-2.424-.325-5.79 1.513-9.06 1.172z"/>
            <path fill="#F5F7FA" d="M22.594 77.383H52.397000000000006V81.826H22.594z"/>
            <path fill="#FFF" d="M46.924 72.876l-.641-.103c.515-3.255 3.208-7.247 8.237-12.212 2.122-2.274 3.996-4.767 5.591-7.437 3.335-5.148 7.128-10.977 15.096-15.5l.317.563c-7.841 4.443-11.572 10.2-14.866 15.285-1.622 2.713-3.529 5.246-5.687 7.556-4.918 4.855-7.555 8.736-8.047 11.848zM35.48 68.44h-.657c0-1.25-.111-2.937-.31-5.266-.34-3.96-.847-9.98-.839-18.572 0-13.932-4-28.916-10.723-40.068l.554-.34C30.292 15.456 34.34 30.56 34.332 44.586c0 8.577.49 14.557.792 18.517.237 2.352.38 4.055.356 5.338z"/>
        </g>
        <g fill-rule="nonzero" transform="translate(65.203 99.149)">
            <ellipse cx="84.537" cy="184.821" fill="#F5F7FA" rx="81.429" ry="11.88"/>
            <path fill="#30193B" d="M26.646 189.579L34.453 149.036 55.298 149.036 31.478 189.561z"/>
            <path fill="#30193B" d="M47.055 176.884L54.868 136.346 75.714 136.346 51.894 176.871zM139.647 189.579L131.834 149.036 110.988 149.036 134.814 189.561z"/>
            <path fill="#30193B" d="M119.232 176.884L111.425 136.346 90.573 136.346 114.399 176.871z"/>
            <path fill="#30193B" d="M138.007 160.758c0 1.622-1.316 2.937-2.937 2.937H31.216c-1.62 0-2.937-1.315-2.937-2.937 0-1.62 1.316-2.937 2.937-2.937H135.07c1.627 0 2.937 1.316 2.937 2.937z"/>
            <path fill="url(#prefix__a)" d="M130 149.036H36.286c-4.421 0-8.007-5.38-8.007-12.014V17.499c0-6.633 3.586-12.013 8.007-12.013H130c4.421 0 8.007 5.38 8.007 12.013v119.523c0 6.633-3.586 12.014-8.007 12.014z"/>
            <path fill="#EC463A" d="M148.95 152.353c0 4.42-3.585 8.006-8.006 8.006H22.892c-4.421 0-8.007-3.585-8.007-8.006v-8.007c0-4.42 3.586-8.006 8.007-8.006h118.052c4.42 0 8.006 3.585 8.006 8.006v8.007z"/>
            <path fill="url(#prefix__b)" d="M41.562 111.817c-1.864.065.657.078-5.847.204-6.503.127-4.171.046-5.494.092L10.44 9.018c0-4.42.12-7.73 8.006-8.006 5.257-.184 8.976.796 11.157 2.94 5.175 5.55 4.934 14.226 6.234 19.379l5.725 88.486z" transform="rotate(2 26.001 56.552)"/>
            <path fill="url(#prefix__b)" d="M155.01 111.998c-1.865.065.656.077-5.847.204-6.504.127-4.171.045-5.494.091L123.887 9.2c0-4.421.121-7.731 8.007-8.007 5.257-.183 8.976.797 11.157 2.94 5.174 5.55 4.933 14.227 6.233 19.38l5.726 88.486z" transform="scale(-1 1) rotate(2 0 -7932.27)"/>
            <path fill="#EC463A" d="M40.526 152.53c-.154 4.418-3.862 7.876-8.28 7.722l-10.402-.364c-4.418-.154-7.876-3.862-7.722-8.28L3.061 89.937c.154-4.418 3.862-7.877 8.28-7.722l10.402.363c4.418.154 7.876 3.863 7.722 8.28l11.061 61.67zM125.289 152.618c.154 4.419 3.863 7.877 8.28 7.723l10.402-.364c4.418-.154 7.876-3.862 7.722-8.28l11.061-61.67c-.154-4.418-3.862-7.876-8.28-7.722l-10.401.363c-4.419.154-7.877 3.863-7.723 8.281l-11.061 61.67z"/>
            <path fill="#FA5044" d="M145.321 128.34c0 4.42-3.585 8.006-8.006 8.006H28.978c-4.421 0-8.007-3.585-8.007-8.006v-8.007c0-4.42 3.586-8.006 8.007-8.006h108.33c4.422 0 8.007 3.585 8.007 8.006v8.007h.006z"/>
            <g>
                <g>
                    <path fill="#C5251A" d="M39.766 10.034l.45-9.86c.005-.101.09-.174.19-.174.096.006.169.079.174.174l.45 9.86c.016.348-.253.646-.601.657-.348.017-.646-.253-.663-.6v-.057z" transform="translate(41.58 33.206) translate(.69 36.899)"/>
                    <path fill="#C5251A" d="M41.03 9.737l-.45 9.86c-.005.101-.09.18-.19.174-.096 0-.169-.078-.175-.174l-.449-9.86c-.016-.348.253-.646.6-.657.349-.017.646.253.663.6.006.018.006.034 0 .057z" transform="translate(41.58 33.206) translate(.69 36.899)"/>
                    <path fill="#C5251A" d="M40.4 9.406l9.866.449c.096.005.174.09.174.19-.005.09-.078.169-.174.174l-9.865.45c-.348.016-.64-.253-.657-.601-.017-.348.252-.645.6-.657.017-.01.04-.01.057-.005z" transform="translate(41.58 33.206) translate(.69 36.899)"/>
                    <path fill="#C5251A" d="M40.4 10.663l-9.86-.45c-.1-.005-.174-.089-.174-.19.006-.09.084-.168.174-.174L40.4 9.4c.349-.017.646.253.663.6.017.349-.253.646-.6.657-.023.011-.046.011-.062.006z" transform="translate(41.58 33.206) translate(.69 36.899)"/>
                    <path fill="#C5251A" d="M38.958 10.034c0-.797.646-1.442 1.443-1.442.796 0 1.442.645 1.442 1.442 0 .797-.646 1.443-1.442 1.443-.797 0-1.443-.646-1.443-1.443z" transform="translate(41.58 33.206) translate(.69 36.899)"/>
                    <path fill="#FF5B5D" d="M39.542 10.034c0-.471.382-.853.853-.853s.853.382.853.853c0 .472-.382.853-.853.853-.471.006-.853-.381-.853-.853z" transform="translate(41.58 33.206) translate(.69 36.899)"/>
                    <path fill="#C5251A" d="M10.107 10.22l-.079-.433c-.056-.286-.112-.684-.162-1.156C9.798 8.16 9.78 7.6 9.73 7.004c0-.595-.04-1.23-.006-1.869.056-.634.034-1.268.152-1.858.1-.589.14-1.139.27-1.599.24-.915.403-1.526.403-1.526.028-.096.124-.152.22-.13.089.023.145.113.128.202l-.005.023s-.101.606-.259 1.515c-.084.45-.073.994-.117 1.566-.057.572.016 1.19.016 1.796.023.611.113 1.218.169 1.784.1.562.163 1.095.27 1.538.095.449.179.814.246 1.06.073.259.112.405.112.405l.006.022c.095.337-.107.685-.438.775-.337.095-.684-.107-.78-.438-.005-.011-.011-.034-.011-.05z" transform="translate(41.58 33.206) translate(.69 36.899)"/>
                    <path fill="#C5251A" d="M11.33 9.922s-.039.146-.112.404c-.067.247-.157.612-.247 1.06-.106.444-.168.972-.27 1.538-.05.567-.145 1.179-.168 1.785-.005.606-.078 1.224-.016 1.796.044.572.033 1.117.117 1.566.158.909.259 1.515.259 1.515l.005.022c.017.096-.05.186-.146.208-.09.017-.18-.045-.202-.129 0 0-.163-.612-.404-1.527-.129-.46-.168-1.01-.27-1.599-.111-.59-.095-1.223-.15-1.858-.034-.634.005-1.268.005-1.868.05-.595.067-1.15.135-1.628.05-.471.112-.87.162-1.156l.079-.432c.062-.342.393-.572.735-.505.342.062.572.393.51.735 0 .017-.005.034-.01.05l-.012.023z" transform="translate(41.58 33.206) translate(.69 36.899)"/>
                    <path fill="#C5251A" d="M10.567 9.456L11 9.378c.286-.05.685-.107 1.156-.163.477-.067 1.033-.084 1.628-.135.595-.005 1.229-.039 1.863-.005.634.05 1.268.033 1.858.151.589.101 1.139.14 1.599.27.92.24 1.526.404 1.526.404.096.028.152.123.13.218-.023.09-.113.146-.203.13l-.022-.006-1.515-.253c-.45-.09-.994-.073-1.566-.117-.572-.062-1.19.016-1.796.016-.612.023-1.218.113-1.784.169-.567.1-1.095.162-1.538.27-.45.089-.814.179-1.06.246-.259.073-.405.112-.405.112l-.022.006c-.337.095-.685-.107-.78-.443-.096-.337.106-.685.443-.775.017-.011.04-.011.056-.017z" transform="translate(41.58 33.206) translate(.69 36.899)"/>
                    <path fill="#C5251A" d="M10.567 10.68l-.404-.113c-.247-.067-.612-.157-1.06-.247-.444-.106-.972-.168-1.538-.269-.567-.056-1.173-.146-1.785-.168-.612 0-1.229-.079-1.796-.017-.572.045-1.117.034-1.566.118l-1.515.252-.022.006c-.101.017-.191-.05-.208-.146-.011-.09.045-.18.135-.202 0 0 .611-.163 1.526-.404.46-.13 1.01-.168 1.6-.27.589-.112 1.223-.095 1.857-.151.634-.034 1.269 0 1.87.006.594.05 1.15.067 1.627.134.47.056.875.113 1.156.163l.432.079c.342.061.572.392.51.735-.061.342-.392.572-.735.51-.022 0-.039-.005-.056-.01l-.028-.006z" transform="translate(41.58 33.206) translate(.69 36.899)"/>
                    <path fill="#C5251A" d="M9.276 10.068c0-.797.646-1.442 1.443-1.442s1.442.645 1.442 1.442c0 .797-.645 1.442-1.442 1.442-.797 0-1.443-.645-1.443-1.442z" transform="translate(41.58 33.206) translate(.69 36.899)"/>
                    <path fill="#FF5B5D" d="M9.86 10.068c0-.471.382-.853.853-.853s.853.382.853.853-.382.853-.853.853c-.466.006-.853-.382-.853-.853z" transform="translate(41.58 33.206) translate(.69 36.899)"/>
                    <path fill="#C5251A" d="M71.525 10.068c0-.797-.646-1.442-1.442-1.442-.797 0-1.443.645-1.443 1.442 0 .797.646 1.442 1.443 1.442.796 0 1.442-.645 1.442-1.442z" transform="translate(41.58 33.206) translate(.69 36.899)"/>
                    <path fill="#C5251A" d="M70.694 10.22l.079-.433c.05-.286.112-.684.163-1.156.067-.471.084-1.032.134-1.627.006-.595.04-1.23.006-1.869-.056-.634-.034-1.268-.152-1.858-.1-.589-.14-1.139-.27-1.599-.24-.915-.403-1.526-.403-1.526-.028-.096-.124-.152-.219-.13-.09.023-.146.113-.13.202v.023s.102.606.26 1.515c.083.45.072.994.117 1.566.062.572-.017 1.19-.017 1.796-.022.611-.112 1.218-.168 1.784-.101.562-.163 1.095-.27 1.538-.095.449-.18.814-.247 1.06-.073.259-.112.405-.112.405l-.005.022c-.096.337.106.685.443.775.337.095.685-.107.78-.438 0-.011.006-.034.011-.05z" transform="translate(41.58 33.206) translate(.69 36.899)"/>
                    <path fill="#C5251A" d="M69.47 9.922l.113.404c.067.247.157.612.247 1.06.107.444.168.972.27 1.538.055.567.145 1.179.168 1.785 0 .606.073 1.224.017 1.796-.045.572-.034 1.117-.118 1.566-.157.909-.258 1.515-.258 1.515l-.006.022c-.017.096.05.186.146.208.09.017.18-.045.202-.129 0 0 .163-.612.404-1.527.129-.46.168-1.01.27-1.599.112-.59.095-1.223.15-1.858.035-.634 0-1.268-.005-1.868-.05-.595-.067-1.15-.134-1.628-.051-.471-.113-.87-.163-1.156l-.079-.432c-.062-.342-.393-.572-.735-.505-.342.062-.572.393-.51.735.005.017.005.034.01.05l.012.023z" transform="translate(41.58 33.206) translate(.69 36.899)"/>
                    <path fill="#C5251A" d="M70.234 9.456l-.432-.078c-.286-.05-.685-.107-1.156-.163-.477-.067-1.033-.084-1.628-.135-.595-.005-1.229-.039-1.863-.005-.634.05-1.268.033-1.857.151-.59.101-1.14.14-1.6.27-.915.24-1.526.404-1.526.404-.096.028-.152.123-.13.218.023.09.113.146.203.13l.022-.006 1.515-.253c.45-.09.994-.073 1.566-.117.573-.062 1.19.016 1.796.016.612.023 1.218.113 1.785.169.566.1 1.094.162 1.537.27.45.089.814.179 1.06.246.26.073.405.112.405.112l.022.006c.337.095.685-.107.78-.443.096-.337-.106-.685-.443-.775-.022-.011-.04-.011-.056-.017z" transform="translate(41.58 33.206) translate(.69 36.899)"/>
                    <path fill="#C5251A" d="M70.234 10.68l.404-.113c.247-.067.612-.157 1.06-.247.444-.106.977-.168 1.538-.269.567-.056 1.173-.146 1.785-.168.612 0 1.23-.079 1.796-.017.572.045 1.117.034 1.566.118l1.515.252.022.006c.101.017.191-.05.208-.146.017-.09-.045-.18-.129-.202 0 0-.612-.163-1.527-.404-.46-.13-1.01-.168-1.599-.27-.59-.112-1.223-.095-1.858-.151-.634-.034-1.268 0-1.868.006-.595.05-1.15.067-1.628.134-.471.056-.875.113-1.156.163l-.432.079c-.342.061-.572.392-.51.735.061.342.392.572.734.51.023 0 .04-.005.057-.01l.022-.006z" transform="translate(41.58 33.206) translate(.69 36.899)"/>
                    <path fill="#FF5B5D" d="M70.936 10.068c0-.471-.382-.853-.86-.853-.47 0-.852.382-.852.853s.381.853.853.853c.477.006.859-.382.859-.853z" transform="translate(41.58 33.206) translate(.69 36.899)"/>
                </g>
                <g>
                    <path fill="#C5251A" d="M39.766 10.034l.45-9.86c.005-.101.09-.174.19-.174.096.006.169.079.174.174l.45 9.86c.016.348-.253.646-.601.657-.348.017-.646-.253-.663-.6v-.057z" transform="translate(41.58 33.206) translate(.69 .368)"/>
                    <path fill="#C5251A" d="M41.03 9.737l-.45 9.86c-.005.101-.09.18-.19.174-.096 0-.169-.078-.175-.174l-.449-9.86c-.016-.348.253-.646.6-.657.349-.017.646.253.663.6.006.018.006.034 0 .057z" transform="translate(41.58 33.206) translate(.69 .368)"/>
                    <path fill="#C5251A" d="M40.4 9.406l9.866.449c.096.005.174.09.174.19-.005.09-.078.169-.174.174l-9.865.45c-.348.016-.64-.253-.657-.601-.017-.348.252-.645.6-.657.017-.01.04-.01.057-.005z" transform="translate(41.58 33.206) translate(.69 .368)"/>
                    <path fill="#C5251A" d="M40.4 10.663l-9.86-.45c-.1-.005-.174-.089-.174-.19.006-.09.084-.168.174-.174L40.4 9.4c.349-.017.646.253.663.6.017.349-.253.646-.6.657-.023.011-.046.011-.062.006z" transform="translate(41.58 33.206) translate(.69 .368)"/>
                    <path fill="#C5251A" d="M38.958 10.034c0-.797.646-1.442 1.443-1.442.796 0 1.442.645 1.442 1.442 0 .797-.646 1.443-1.442 1.443-.797 0-1.443-.646-1.443-1.443z" transform="translate(41.58 33.206) translate(.69 .368)"/>
                    <path fill="#FF5B5D" d="M39.542 10.034c0-.471.382-.853.853-.853s.853.382.853.853c0 .472-.382.853-.853.853-.471.006-.853-.381-.853-.853z" transform="translate(41.58 33.206) translate(.69 .368)"/>
                    <path fill="#C5251A" d="M10.107 10.22l-.079-.433c-.056-.286-.112-.684-.162-1.156C9.798 8.16 9.78 7.6 9.73 7.004c0-.595-.04-1.23-.006-1.869.056-.634.034-1.268.152-1.858.1-.589.14-1.139.27-1.599.24-.915.403-1.526.403-1.526.028-.096.124-.152.22-.13.089.023.145.113.128.202l-.005.023s-.101.606-.259 1.515c-.084.45-.073.994-.117 1.566-.057.572.016 1.19.016 1.796.023.611.113 1.218.169 1.784.1.562.163 1.095.27 1.538.095.449.179.814.246 1.06.073.259.112.405.112.405l.006.022c.095.337-.107.685-.438.775-.337.095-.684-.107-.78-.438-.005-.011-.011-.034-.011-.05z" transform="translate(41.58 33.206) translate(.69 .368)"/>
                    <path fill="#C5251A" d="M11.33 9.922s-.039.146-.112.404c-.067.247-.157.612-.247 1.06-.106.444-.168.972-.27 1.538-.05.567-.145 1.179-.168 1.785-.005.606-.078 1.224-.016 1.796.044.572.033 1.117.117 1.566.158.909.259 1.515.259 1.515l.005.022c.017.096-.05.186-.146.208-.09.017-.18-.045-.202-.129 0 0-.163-.612-.404-1.527-.129-.46-.168-1.01-.27-1.599-.111-.59-.095-1.223-.15-1.858-.034-.634.005-1.268.005-1.868.05-.595.067-1.15.135-1.628.05-.471.112-.87.162-1.156l.079-.432c.062-.342.393-.572.735-.505.342.062.572.393.51.735 0 .017-.005.034-.01.05l-.012.023z" transform="translate(41.58 33.206) translate(.69 .368)"/>
                    <path fill="#C5251A" d="M10.567 9.456L11 9.378c.286-.05.685-.107 1.156-.163.477-.067 1.033-.084 1.628-.135.595-.005 1.229-.039 1.863-.005.634.05 1.268.033 1.858.151.589.101 1.139.14 1.599.27.92.24 1.526.404 1.526.404.096.028.152.123.13.218-.023.09-.113.146-.203.13l-.022-.006-1.515-.253c-.45-.09-.994-.073-1.566-.117-.572-.062-1.19.016-1.796.016-.612.023-1.218.113-1.784.169-.567.1-1.095.162-1.538.27-.45.089-.814.179-1.06.246-.259.073-.405.112-.405.112l-.022.006c-.337.095-.685-.107-.78-.443-.096-.337.106-.685.443-.775.017-.011.04-.011.056-.017z" transform="translate(41.58 33.206) translate(.69 .368)"/>
                    <path fill="#C5251A" d="M10.567 10.68l-.404-.113c-.247-.067-.612-.157-1.06-.247-.444-.106-.972-.168-1.538-.269-.567-.056-1.173-.146-1.785-.168-.612 0-1.229-.079-1.796-.017-.572.045-1.117.034-1.566.118l-1.515.252-.022.006c-.101.017-.191-.05-.208-.146-.011-.09.045-.18.135-.202 0 0 .611-.163 1.526-.404.46-.13 1.01-.168 1.6-.27.589-.112 1.223-.095 1.857-.151.634-.034 1.269 0 1.87.006.594.05 1.15.067 1.627.134.47.056.875.113 1.156.163l.432.079c.342.061.572.392.51.735-.061.342-.392.572-.735.51-.022 0-.039-.005-.056-.01l-.028-.006z" transform="translate(41.58 33.206) translate(.69 .368)"/>
                    <path fill="#C5251A" d="M9.276 10.068c0-.797.646-1.442 1.443-1.442s1.442.645 1.442 1.442c0 .797-.645 1.442-1.442 1.442-.797 0-1.443-.645-1.443-1.442z" transform="translate(41.58 33.206) translate(.69 .368)"/>
                    <path fill="#FF5B5D" d="M9.86 10.068c0-.471.382-.853.853-.853s.853.382.853.853-.382.853-.853.853c-.466.006-.853-.382-.853-.853z" transform="translate(41.58 33.206) translate(.69 .368)"/>
                    <path fill="#C5251A" d="M71.525 10.068c0-.797-.646-1.442-1.442-1.442-.797 0-1.443.645-1.443 1.442 0 .797.646 1.442 1.443 1.442.796 0 1.442-.645 1.442-1.442z" transform="translate(41.58 33.206) translate(.69 .368)"/>
                    <path fill="#C5251A" d="M70.694 10.22l.079-.433c.05-.286.112-.684.163-1.156.067-.471.084-1.032.134-1.627.006-.595.04-1.23.006-1.869-.056-.634-.034-1.268-.152-1.858-.1-.589-.14-1.139-.27-1.599-.24-.915-.403-1.526-.403-1.526-.028-.096-.124-.152-.219-.13-.09.023-.146.113-.13.202v.023s.102.606.26 1.515c.083.45.072.994.117 1.566.062.572-.017 1.19-.017 1.796-.022.611-.112 1.218-.168 1.784-.101.562-.163 1.095-.27 1.538-.095.449-.18.814-.247 1.06-.073.259-.112.405-.112.405l-.005.022c-.096.337.106.685.443.775.337.095.685-.107.78-.438 0-.011.006-.034.011-.05z" transform="translate(41.58 33.206) translate(.69 .368)"/>
                    <path fill="#C5251A" d="M69.47 9.922l.113.404c.067.247.157.612.247 1.06.107.444.168.972.27 1.538.055.567.145 1.179.168 1.785 0 .606.073 1.224.017 1.796-.045.572-.034 1.117-.118 1.566-.157.909-.258 1.515-.258 1.515l-.006.022c-.017.096.05.186.146.208.09.017.18-.045.202-.129 0 0 .163-.612.404-1.527.129-.46.168-1.01.27-1.599.112-.59.095-1.223.15-1.858.035-.634 0-1.268-.005-1.868-.05-.595-.067-1.15-.134-1.628-.051-.471-.113-.87-.163-1.156l-.079-.432c-.062-.342-.393-.572-.735-.505-.342.062-.572.393-.51.735.005.017.005.034.01.05l.012.023z" transform="translate(41.58 33.206) translate(.69 .368)"/>
                    <path fill="#C5251A" d="M70.234 9.456l-.432-.078c-.286-.05-.685-.107-1.156-.163-.477-.067-1.033-.084-1.628-.135-.595-.005-1.229-.039-1.863-.005-.634.05-1.268.033-1.857.151-.59.101-1.14.14-1.6.27-.915.24-1.526.404-1.526.404-.096.028-.152.123-.13.218.023.09.113.146.203.13l.022-.006 1.515-.253c.45-.09.994-.073 1.566-.117.573-.062 1.19.016 1.796.016.612.023 1.218.113 1.785.169.566.1 1.094.162 1.537.27.45.089.814.179 1.06.246.26.073.405.112.405.112l.022.006c.337.095.685-.107.78-.443.096-.337-.106-.685-.443-.775-.022-.011-.04-.011-.056-.017z" transform="translate(41.58 33.206) translate(.69 .368)"/>
                    <path fill="#C5251A" d="M70.234 10.68l.404-.113c.247-.067.612-.157 1.06-.247.444-.106.977-.168 1.538-.269.567-.056 1.173-.146 1.785-.168.612 0 1.23-.079 1.796-.017.572.045 1.117.034 1.566.118l1.515.252.022.006c.101.017.191-.05.208-.146.017-.09-.045-.18-.129-.202 0 0-.612-.163-1.527-.404-.46-.13-1.01-.168-1.599-.27-.59-.112-1.223-.095-1.858-.151-.634-.034-1.268 0-1.868.006-.595.05-1.15.067-1.628.134-.471.056-.875.113-1.156.163l-.432.079c-.342.061-.572.392-.51.735.061.342.392.572.734.51.023 0 .04-.005.057-.01l.022-.006z" transform="translate(41.58 33.206) translate(.69 .368)"/>
                    <path fill="#FF5B5D" d="M70.936 10.068c0-.471-.382-.853-.86-.853-.47 0-.852.382-.852.853s.381.853.853.853c.477.006.859-.382.859-.853z" transform="translate(41.58 33.206) translate(.69 .368)"/>
                </g>
            </g>
        </g>
        <g fill="#FDB614" fill-rule="nonzero">
            <path d="M.026 2.903c.648 5.242 6.053 7.294 4.71 1.622C3.813.622-.363-.241.027 2.903zM6.408.662C4.883 3.66 7.468 6.941 8.716 3.438 9.581 1.026 7.321-1.13 6.408.662zM144.934 108.894c2.077-.11 3.96-3.092 1.171-2.96-1.86.09-4.033 3.114-1.171 2.96zM143.55 105.69c1.136-.787 1.502-3.543-.025-2.496-1.021.697-1.538 3.578.026 2.496zM139.21 106.276c1.671-.832 3.523-.154 3.337 1.933-.181 2.006-2.65 4.247-4.702 3.521-2.716-.957-.305-4.627 1.365-5.454z" transform="translate(70.29 159.72)"/>
        </g>
        <g fill-rule="nonzero">
            <g>
                <path fill="#DFDFDF" d="M44.462 25.487s1.653 3.839 1.622 5.873c-.032 2.034.121 2.929 0 3.198-.122.27.831 6.82 0 9.314-.832 2.495-3.262 8.424-3.124 9.051.138.627 2.747 1.744 3.294 3.535.547 1.791-1.396 2.228-2.883 2.228h-2.319c-1.311-.027-1.766 0-2.857 0H35.64c-1.262 0-3.904-1.492-3.904-1.492s1.795 1.374-1.958 1.613c-3.752.24-6.658.24-10.396.24h-1.228c-3.53.013-5.257.013-7.98-.24-4.538-.417-9.147-3.644-9.618-13.561-.47-9.918 6.573-15.413 13.025-15.413s7.528.24 8.602 0c1.074-.24 1.314-3.1 3.227-4.058 1.912-.958 19.053-.288 19.053-.288z" transform="translate(120.78 152.79)"/>
                <path fill="#DFDFDF" d="M34.14 8.018l2.685 19.613s14.703-.91 13.404-10.468C48.929 7.604 40.82 7.11 34.14 8.018z" transform="translate(120.78 152.79)"/>
                <path fill="#DFDFDF" d="M40.75 7.83S44.841-.008 46.016 0c1.174.008 3.063 7.92 2.845 9.685-.217 1.764-.795 2.401-.795 2.401L40.75 7.83z" transform="translate(120.78 152.79)"/>
                <path fill="#9C9C9C" d="M46.67 10.059s.98-.364 1.383-1.761C48.456 6.9 46.95.873 46.21.722c-.738-.152-2.925 3.992-2.892 4.926.033.935.48 1.718.221 2.194-.26.476-.382.975.68 1.628 1.063.654 2.064.812 2.45.589z" transform="translate(120.78 152.79)"/>
                <path fill="#DFDFDF" d="M34.164 8.018l2.66 19.613s-14.41 3.05-15.711-6.508c-1.301-9.559 6.373-12.195 13.05-13.105z" transform="translate(120.78 152.79)"/>
                <path fill="#DFDFDF" d="M27.765 9.597s-6.035-6.462-7.163-6.14c-1.128.323-.832 8.452-.156 10.093.675 1.642 1.407 2.102 1.407 2.102l5.912-6.055z" transform="translate(120.78 152.79)"/>
                <path fill="#9C9C9C" d="M22.656 13.319s-1.043-.09-1.805-1.33c-.761-1.241-.918-7.45-.247-7.793.67-.342 3.883 3.06 4.104 3.974.222.913 0 1.784.371 2.173.371.39.63.832-.22 1.752s-1.77 1.342-2.203 1.224zM14.997 36.005s8.316-.333 9.868 7.983c1.552 8.316-3.77 10.478-3.105 10.7.665.22 4.214-.388 6.486.194 1.383.373 2.608 1.184 3.493 2.31l.853.18s-.416-2.297-3.41-2.994c-2.993-.697-5.294-.25-5.39-.332-.096-.083 4.171-2.523 2.202-10.12-1.97-7.595-7.504-8.026-10.997-7.921zM44.473 25.802s-1.35 1.348-5.849 1.937c-1.359.178-4.194.709-7.171.355-7.158-.852-6.53-1.597-6.91-1.65-.017-.002-.028.014-.041.028-.443.459-.799 1.012-.708.92.092-.09-.742 2.387 7.042 2.387 3.393 0 5.572-.077 7.51-.537 2.508-.594 4.995-1.518 6.127-3.44z" transform="translate(120.78 152.79)"/>
                <path fill="#9C9C9C" d="M28.903 42.44s1.035 3.772 1.45 4.479c.416.707.874 1.788.874 2.703 0 .914.21 4.948 1.372 6.153 1.162 1.206 3.04 2.911 3.04 2.911h-3.998c-.128 0-.808.008-.763-.023.086-.059.442-.06.738-.202.293-.139.49-.33.522-.485.018-.086.022-.145 0-.224-.017-.062-.045-.138-.133-.252-.08-.105-.562-.629-.662-.725-.477-.458-1.182-.918-1.322-1.706-.188-1.058.055-1.157 0-1.767-.167-1.83-.188-4.158-.271-4.449-.084-.29-1.301-4.406-.847-6.413zM40.499 43.884c-2.245 2.04-2.62 2.353-2.786 2.827-.166.474-.624 5.871-.416 6.653.208.781.856.705 1.86 1.897 1.006 1.191.87 1.967.495 2.513-.277.406-1.033.827-1.417.885-.385.057 1.196.027 2.264.027h1.04c.1 0 .053-.064.053-.095 0-.171-.03-.266-.03-.266s-1.286-2.902-1.536-3.609c-.15-.37-.22-.766-.207-1.164 0-.105-.416-5.946-.167-6.55.25-.604 1.955-2.62 2.974-4.677.618-1.263 1.076-2.599 1.366-3.975 0 0-1.248 3.493-3.493 5.534z" transform="translate(120.78 152.79)"/>
                <path fill="#DFDFDF" d="M7.193 56.462S4.948 66.17 6.445 73.82c1.497 7.651 6.195 11.352 9.563 13.015 3.368 1.663 2.91 3.909.333 4.407-2.578.5-11.601-3.45-14.304-12.224-2.702-8.773-2.37-17.543-.998-22.077 1.373-4.534 2.329-5.532 2.329-5.532l3.825 5.054z" transform="translate(120.78 152.79)"/>
                <path fill="#EFEFEF" d="M42.53 40.163c0-.083 2.05-4.464 1.939-7.929-.112-3.464-7.23-2.66-7.218 1.193.011 3.854.427 9.701 2.423 9.286 1.996-.416 2.856-2.55 2.856-2.55z" transform="translate(120.78 152.79)"/>
            </g>
            <g>
                <path fill="#FFF" d="M6.32 1.03s1.51 1.077 1.443 3.334C7.694 6.62 5.2 6.79 3.648 6.547c.25-1.577.726-5.755.726-5.755l1.947.238z" transform="translate(120.78 152.79) rotate(-16 85.05 -99.446)"/>
                <path fill="#FFF" d="M3.144.57S1.031 1.036.401 3.204c-.63 2.168 1.692 3.098 3.244 3.343.25-1.577 1.177-5.7 1.177-5.7L3.144.57z" transform="translate(120.78 152.79) rotate(-16 85.05 -99.446)"/>
                <path fill="#A3231F" d="M2.718 4.033s.009 1.92 1.094 2.125c1.086.205 1.946-1.647 1.946-1.647s-1.11-.386-1.38-1.188c-.433.384-1.158.785-1.66.71z" transform="translate(120.78 152.79) rotate(-16 85.05 -99.446)"/>
                <path fill="#723A14" d="M4.5 2.28l-.17 1.085.397.571s.397.664 1.436.594c1.04-.07 1.292-1.05 1.056-1.537-.236-.487-.316-.539-.316-.539s.312.81.052 1.239c-.28.463-1.04.753-1.707.098-.391-.393-.6-.932-.573-1.485L4.5 2.28z" transform="translate(120.78 152.79) rotate(-16 85.05 -99.446)"/>
                <path fill="#723A14" d="M4.5 2.28L4.34 3.4l-.566.386s-.58.51-1.547.119c-.967-.39-.908-1.396-.532-1.782.376-.386.466-.414.466-.414s-.546.675-.43 1.162c.124.526.763 1.04 1.593.618.495-.254.86-.704 1.004-1.241l.172.032z" transform="translate(120.78 152.79) rotate(-16 85.05 -99.446)"/>
                <path fill="#313131" d="M4.822.23s1.539 0 1.67.674c.13.674-1.04.334-1.04.334s.162 1.215-.955 1.04L4.822.23z" transform="translate(120.78 152.79) rotate(-16 85.05 -99.446)"/>
                <path fill="#313131" d="M4.822.23S3.355-.237 3.027.357c-.328.594.882.637.882.637s-.526 1.107.594 1.282c.102-.673.32-2.046.32-2.046z" transform="translate(120.78 152.79) rotate(-16 85.05 -99.446)"/>
            </g>
            <g>
                <path fill="#544A46" d="M3.36 3.5c.04.22.006.442-.09.588-.097.143-.211.257-.338.336l-.892.65c-.13.093-.303.175-.419.001-.116-.174-.062-.44.007-.629.205-.564.517-1.007.9-1.28.133-.107.288-.152.448-.131.168.028.322.213.384.464zM16.123 1.662c.022.224.116.428.249.544.133.114.276.192.421.23l1.039.38c.147.054.339.085.399-.115.06-.199-.062-.436-.176-.6-.352-.489-.775-.83-1.22-.984-.158-.066-.321-.067-.47-.003-.154.071-.251.29-.242.548z" transform="translate(120.78 152.79) translate(24.414 8.91)"/>
                <path fill="#1A1415" d="M16.452 8.999l-.072-.372c-.025-.148-.022-.299.007-.445l.037-.292c.02-.099.057-.19.085-.296.033-.11.071-.218.115-.324.049-.104.112-.211.17-.318.132-.227.29-.435.472-.62.203-.198.428-.37.67-.51.123-.077.253-.14.39-.186l.208-.068.11-.02.052-.011.1-.02c.265-.04.535-.049.804-.024.286.029.568.097.84.202.24.1.47.234.683.395.099.075.196.146.286.224.08.079.158.163.23.25.07.076.137.155.2.237l.142.247c.082.124.145.262.187.407.043.12.079.244.107.37 0 0-.108-.096-.267-.255-.095-.095-.197-.181-.307-.257-.129-.107-.268-.2-.414-.278-.163-.098-.333-.182-.508-.25-.089-.046-.183-.08-.28-.099-.098-.018-.19-.063-.293-.085-.19-.05-.383-.083-.577-.1-.23-.007-.46.01-.687.05l-.028.005-.076.015-.153.03c-.1.027-.196.066-.288.114-.19.084-.371.187-.543.306-.145.144-.327.248-.454.405-.132.131-.253.275-.361.43-.1.128-.19.267-.265.415-.075.111-.136.233-.181.362-.081.243-.141.366-.141.366zM1.514 11.452l-.104-.364c-.037-.145-.048-.296-.031-.443l.01-.295c.012-.1.04-.195.06-.303.023-.112.052-.223.086-.332.04-.108.093-.22.142-.332.112-.237.252-.459.416-.658.185-.216.394-.406.624-.567.115-.087.24-.16.37-.22l.203-.085.107-.03.051-.015.098-.028c.261-.064.53-.096.8-.095.287.004.573.047.853.128.25.08.49.192.715.334.105.067.209.129.304.199.088.071.172.148.253.23.076.068.149.14.218.217l.163.234c.093.117.168.248.223.389.053.116.099.236.138.359 0 0-.115-.086-.288-.23-.103-.087-.212-.164-.328-.23-.138-.096-.284-.176-.437-.241-.17-.083-.347-.152-.527-.205-.093-.038-.19-.063-.289-.073-.098-.01-.194-.047-.3-.06-.193-.032-.388-.049-.582-.049-.23.013-.458.05-.68.11l-.028.007-.075.021-.149.043c-.096.037-.19.083-.277.14-.182.1-.354.218-.514.351-.132.157-.304.276-.417.444-.12.142-.228.295-.322.459-.09.137-.166.283-.228.437-.065.118-.115.244-.149.377-.06.249-.109.376-.109.376z" transform="translate(120.78 152.79) translate(24.414 8.91)"/>
            </g>
        </g>
        <g transform="translate(187.11 33.99)">
            <ellipse cx="73.26" cy="232.65" fill="#F5F7FA" fill-rule="nonzero" rx="39.6" ry="6.93"/>
            <path fill="#FDD42D" fill-rule="nonzero" d="M40.57 34.71c-.928-7.372-3.168-15.119-9.913-17.844-6.745-2.725-16.132 2.068-21.665 6.157l-6.708 5.2c-.117.077-.209.187-.262.316-.72 1.784 6.354 8.05 17.312 12.478 10.958 4.427 21.644 5.336 22.365 3.553.049-.143.051-.297.006-.44l-1.135-9.42z"/>
            <path fill="#F5F5F5" fill-rule="nonzero" d="M16.048 38.159c3.144 1.51 6.295 2.904 10.998 4.333 7.542 2.291 13.768 2.389 13.586 1.722-1.353-4.965-10.482-9.637-18.143-12.275C14.827 29.3 12.04 28.545 5.54 28.13c-6.5-.415 2.79 6.121 10.507 10.029z"/>
            <path fill="#FFF" fill-rule="nonzero" d="M21.917 37.281c3.579 1.508 5.403-1.318 6.443-2.97.057-.09 0-.057-.993-.499-.752-.334-1.782-.721-2.755-1.099-1.37-.53-2.822-1.041-3.66-1.303-.594-.185-.94-.351-1.056-.344-.027.001-.018-.026-.024 0-.282 1.256-1.013 4.373 2.045 6.215z"/>
            <path stroke="#313131" stroke-width="2.445" d="M62.037 228.958c.166-42.692.003-124.02 0-170.64 0-7.053-6.513-30.32-12.55-46.327-10.173-26.98-15.512.478-15.512.478"/>
            <path fill="#FDD42D" fill-rule="nonzero" d="M35.368 15.645c-.146-1.831.5-4.083-1.144-4.776-1.645-.692-3.532 1.822-5.214 3.107-1.684 1.691-2.514 2.543-2.493 2.555.55.3 2.068 1.138 4.87 2.27 2.801 1.132 3.385 1.775 3.564 1.331.008-.023.147-1.519.417-4.487z"/>
            <path stroke="#313131" stroke-linecap="round" stroke-width="2.445" d="M48.868 226.775c.47 0 8.79.387 13.08.61 9.545.499 35.298 2.705 44.643 3.285 7.345.456-35.098 5.074-41.56 6.489-.216.047-1.326-3.025-3.33-9.216-.026-.08-.112-.123-.192-.097-.023.007-.044.02-.061.038h0"/>
        </g>
    </g>
</svg>
